<?xml version="1.0" standalone="no"?>
<!DOCTYPE svg PUBLIC "-//W3C//DTD SVG 20010904//EN"
 "http://www.w3.org/TR/2001/REC-SVG-20010904/DTD/svg10.dtd">
<svg version="1.0" xmlns="http://www.w3.org/2000/svg"
 width="219.000000pt" height="219.000000pt" viewBox="0 0 219.000000 219.000000"
 preserveAspectRatio="xMidYMid meet">
<metadata>
Created by potrace 1.11, written by Peter Selinger 2001-2013
</metadata>
<g transform="translate(0.000000,219.000000) scale(0.100000,-0.100000)"
fill="#000000" stroke="none">
<path d="M120 1333 l0 -493 495 0 495 0 0 160 0 160 -78 0 -77 0 0 215 0 215
35 1 c19 0 53 1 75 2 l40 2 3 116 3 116 -496 0 -495 0 0 -494z"/>
<path d="M1217 1592 c-9 -2 -17 -12 -18 -23 0 -10 0 -77 0 -149 0 -71 0 -159
0 -195 l1 -65 139 0 138 0 0 215 0 215 -41 1 c-23 0 -77 1 -122 2 -44 1 -88 1
-97 -1z"/>
<path d="M126 732 c-3 -3 -6 -81 -6 -174 l0 -168 175 0 175 0 0 175 0 175
-169 -1 c-93 0 -172 -3 -175 -7z m254 -172 l0 -80 -84 0 -84 0 77 79 c42 43
79 79 84 80 4 1 7 -35 7 -79z"/>
<path d="M1000 650 l-45 -5 -1 -123 c0 -106 2 -122 15 -120 12 3 16 16 16 58
l0 55 37 1 c35 2 37 0 62 -57 15 -35 32 -59 41 -59 20 0 20 0 -11 63 l-27 54
22 22 c24 24 28 73 7 90 -22 19 -67 27 -116 21z m91 -35 c16 -11 10 -54 -10
-65 -11 -5 -37 -10 -59 -10 l-39 0 2 43 c2 23 3 43 4 44 3 4 93 -7 102 -12z"/>
<path d="M673 525 l0 -126 65 2 c76 3 106 22 108 68 1 23 -6 37 -24 51 -13 11
-20 20 -14 20 18 0 33 37 26 64 -7 30 -48 46 -114 46 l-46 0 -1 -125z m123 84
c34 -28 2 -67 -52 -65 -36 1 -39 3 -41 35 -2 19 2 38 8 41 15 10 69 2 85 -11z
m9 -109 c33 -36 -8 -82 -70 -77 -29 2 -30 5 -31 50 l-1 48 43 -2 c25 -2 51
-10 59 -19z"/>
<path d="M1311 628 c-86 -219 -89 -228 -70 -228 6 0 18 18 26 40 16 39 17 40
65 40 47 0 49 -1 64 -40 9 -22 23 -40 31 -40 10 0 13 5 8 18 -4 9 -22 58 -40
107 -18 50 -36 98 -40 108 -10 24 -34 21 -44 -5z m39 -59 c6 -22 13 -46 16
-53 4 -10 -5 -13 -31 -13 -34 1 -36 3 -32 27 7 33 25 80 31 80 3 0 10 -18 16
-41z"/>
<path d="M1540 525 c0 -99 3 -125 14 -125 10 0 13 22 12 99 -1 55 2 97 5 95 3
-2 34 -46 69 -99 85 -130 95 -127 95 29 0 85 -4 121 -12 123 -9 3 -13 -23 -15
-98 l-3 -102 -68 101 c-37 56 -74 102 -82 102 -13 0 -15 -21 -15 -125z"/>
<path d="M1863 525 l-1 -127 70 4 c60 5 74 9 98 34 52 52 44 151 -14 189 -13
9 -52 18 -88 22 l-65 6 0 -128z m143 74 c20 -20 31 -68 25 -103 -8 -38 -46
-65 -98 -70 l-43 -4 0 97 c0 54 2 100 5 103 10 9 96 -9 111 -23z"/>
</g>
</svg>
